<svg width="355.08857421875px" height="121.39999999999999px" xmlns="http://www.w3.org/2000/svg" viewBox="72.455712890625 14.300000000000004 355.08857421875 121.39999999999999" style="background: rgba(0, 0, 0, 0);" preserveAspectRatio="xMidYMid"><defs><filter id="editing-offset"><feFlood flood-color="#f00" flood-opacity="0.5" result="c1"></feFlood><feFlood flood-color="#0f0" flood-opacity="0.5" result="c2"></feFlood><feFlood flood-color="#00f" flood-opacity="0.5" result="c3"></feFlood><feComposite operator="in" in="c1" in2="SourceAlpha" result="text-c1"></feComposite><feComposite operator="in" in="c2" in2="SourceAlpha" result="text-c2"></feComposite><feComposite operator="in" in="c3" in2="SourceAlpha" result="text-c3"></feComposite><feOffset in="text-c1" dx="-10" dy="0" result="text1"></feOffset><feOffset in="text-c2" dx="10" dy="0" result="text2"></feOffset><feOffset in="text-c3" dx="0" dy="0" result="text3"></feOffset><feMerge><feMergeNode in="text1"></feMergeNode><feMergeNode in="text2"></feMergeNode><feMergeNode in="text3"></feMergeNode></feMerge></filter></defs><g filter="url(#editing-offset)"><g transform="translate(126.64025601744652, 98.68000030517578)"><path d="M30.21-33.92L30.21-33.92L30.21-33.92Q25.02-33.92 21.25-35.65L21.25-35.65L19.20-25.28L31.55-25.28L31.55-25.28Q31.55-21.89 29.86-19.74L29.86-19.74L29.86-19.74Q28.16-17.60 25.09-17.60L25.09-17.60L25.09-17.60Q21.76-17.60 18.69-18.82L18.69-18.82L18.69-18.82Q18.05-19.07 17.98-19.14L17.98-19.14L14.34 0L0.38 0L8.51-42.24L37.06-42.24L37.06-42.24Q37.06-38.34 35.23-36.13L35.23-36.13L35.23-36.13Q33.41-33.92 30.21-33.92ZM54.98-17.98L54.98-17.98L54.98-17.98Q57.28-22.08 57.28-26.24L57.28-26.24L57.28-26.24Q57.28-28.99 55.30-28.99L55.30-28.99L55.30-28.99Q53.76-28.99 52.16-26.37L52.16-26.37L52.16-26.37Q50.50-23.74 49.98-20.35L49.98-20.35L46.66 0L33.41 1.28L39.94-32.64L50.50-33.92L49.34-27.46L49.34-27.46Q52.48-33.92 59.52-33.92L59.52-33.92L59.52-33.92Q63.23-33.92 65.25-32L65.25-32L65.25-32Q67.26-30.08 67.26-26.14L67.26-26.14L67.26-26.14Q67.26-22.21 64.67-19.71L64.67-19.71L64.67-19.71Q62.08-17.22 57.66-17.22L57.66-17.22L57.66-17.22Q55.74-17.22 54.98-17.98ZM71.07-1.92L71.07-1.92L71.07-1.92Q69.57-3.58 68.90-6.21L68.90-6.21L68.90-6.21Q68.22-8.83 68.22-13.12L68.22-13.12L68.22-13.12Q68.22-17.41 69.70-21.31L69.70-21.31L69.70-21.31Q71.17-25.22 73.86-28.03L73.86-28.03L73.86-28.03Q79.36-33.92 88.45-33.92L88.45-33.92L88.45-33.92Q91.71-33.92 94.08-32.83L94.08-32.83L105.02-33.92L100.29-8.96L100.29-8.96Q100.10-8.19 100.10-6.78L100.10-6.78L100.10-6.78Q100.10-5.38 100.96-4.48L100.96-4.48L100.96-4.48Q101.82-3.58 103.10-3.46L103.10-3.46L103.10-3.46Q102.46-1.28 100.13 0L100.13 0L100.13 0Q97.79 1.28 95.17 1.28L95.17 1.28L95.17 1.28Q92.54 1.28 90.78 0.29L90.78 0.29L90.78 0.29Q89.02-0.70 88.51-2.37L88.51-2.37L88.51-2.37Q87.49-0.77 85.31 0.26L85.31 0.26L85.31 0.26Q83.14 1.28 80.22 1.28L80.22 1.28L80.22 1.28Q77.31 1.28 74.94 0.51L74.94 0.51L74.94 0.51Q72.58-0.26 71.07-1.92ZM84.58-27.90L84.58-27.90L84.58-27.90Q83.84-26.75 83.20-24.80L83.20-24.80L83.20-24.80Q82.56-22.85 81.50-17.63L81.50-17.63L81.50-17.63Q80.45-12.42 80.45-8.70L80.45-8.70L80.45-8.70Q80.45-4.99 81.02-3.90L81.02-3.90L81.02-3.90Q81.60-2.82 82.62-2.82L82.62-2.82L82.62-2.82Q84.67-2.82 86.18-4.77L86.18-4.77L86.18-4.77Q87.68-6.72 88.26-10.18L88.26-10.18L91.65-28.93L91.65-28.93Q90.30-30.08 88.74-30.08L88.74-30.08L88.74-30.08Q87.17-30.08 86.24-29.57L86.24-29.57L86.24-29.57Q85.31-29.06 84.58-27.90ZM139.65-26.62L139.65-26.62L139.65-26.62Q139.65-23.94 137.41-22.27L137.41-22.27L137.41-22.27Q135.17-20.61 131.52-20.61L131.52-20.61L131.52-20.61Q129.98-20.61 129.09-21.06L129.09-21.06L129.09-21.06Q129.79-22.72 130.02-24.80L130.02-24.80L130.02-24.80Q130.24-26.88 130.24-27.46L130.24-27.46L130.24-27.46Q130.24-30.14 128.38-30.14L128.38-30.14L128.38-30.14Q127.10-30.14 125.66-28.54L125.66-28.54L125.66-28.54Q124.22-26.94 123.01-24.45L123.01-24.45L123.01-24.45Q120.32-18.69 120.32-12.86L120.32-12.86L120.32-12.86Q120.32-9.66 121.54-8.22L121.54-8.22L121.54-8.22Q122.75-6.78 125.44-6.78L125.44-6.78L125.44-6.78Q129.15-6.78 132.10-9.86L132.10-9.86L132.10-9.86Q132.93-10.82 133.38-11.90L133.38-11.90L133.38-11.90Q135.81-10.62 135.81-7.10L135.81-7.10L135.81-7.10Q135.81-3.52 131.84-1.15L131.84-1.15L131.84-1.15Q127.74 1.28 121.22 1.28L121.22 1.28L121.22 1.28Q108.22 1.28 108.22-12.48L108.22-12.48L108.22-12.48Q108.22-22.53 113.92-28.29L113.92-28.29L113.92-28.29Q119.42-33.92 129.54-33.92L129.54-33.92L129.54-33.92Q139.65-33.92 139.65-26.62ZM157.89-30.34L157.89-30.34L157.89-30.34Q161.34-33.92 168.64-33.92L168.64-33.92L168.64-33.92Q172.67-33.92 174.88-31.78L174.88-31.78L174.88-31.78Q177.09-29.63 177.09-25.70L177.09-25.70L177.09-25.70Q177.09-21.76 174.88-18.98L174.88-18.98L174.88-18.98Q172.67-16.19 168.58-15.04L168.58-15.04L168.58-15.04Q168.90-13.76 169.34-12.42L169.34-12.42L170.24-9.86L170.24-9.86Q171.46-6.59 172.42-5.44L172.42-5.44L172.42-5.44Q173.38-4.29 174.66-3.90L174.66-3.90L174.66-3.90Q173.95-1.28 171.39 0.13L171.39 0.13L171.39 0.13Q169.34 1.28 166.53 1.28L166.53 1.28L166.53 1.28Q158.27 1.28 157.18-11.46L157.18-11.46L157.18-11.46Q156.99-13.25 156.99-15.04L156.99-15.04L156.99-15.04Q160.19-15.94 162.43-18.94L162.43-18.94L162.43-18.94Q164.67-21.95 164.67-25.47L164.67-25.47L164.67-25.47Q164.67-28.99 162.18-28.99L162.18-28.99L162.18-28.99Q160.38-28.99 158.98-27.01L158.98-27.01L158.98-27.01Q157.57-25.02 156.93-21.63L156.93-21.63L152.70 0L139.78 1.28L148.74-44.80L161.60-46.08L160.13-38.46L160.13-38.46Q159.17-33.09 157.89-30.34ZM205.95-10.82L205.95-10.82L205.95-10.82Q207.55-9.73 207.55-7.33L207.55-7.33L207.55-7.33Q207.55-4.93 206.34-3.39L206.34-3.39L206.34-3.39Q205.12-1.86 203.14-0.83L203.14-0.83L203.14-0.83Q199.04 1.28 194.62 1.28L194.62 1.28L194.62 1.28Q190.21 1.28 187.62 0.32L187.62 0.32L187.62 0.32Q185.02-0.64 183.30-2.43L183.30-2.43L183.30-2.43Q179.90-5.82 179.90-12.03L179.90-12.03L179.90-12.03Q179.90-21.70 185.15-27.58L185.15-27.58L185.15-27.58Q190.78-33.92 200.58-33.92L200.58-33.92L200.58-33.92Q206.66-33.92 209.66-31.36L209.66-31.36L209.66-31.36Q211.90-29.44 211.90-26.30L211.90-26.30L211.90-26.30Q211.90-15.04 192.45-15.04L192.45-15.04L192.45-15.04Q192.19-13.38 192.19-11.97L192.19-11.97L192.19-11.97Q192.19-9.02 193.50-7.90L193.50-7.90L193.50-7.90Q194.82-6.78 197.25-6.78L197.25-6.78L197.25-6.78Q199.68-6.78 202.27-7.90L202.27-7.90L202.27-7.90Q204.86-9.02 205.95-10.82ZM192.90-17.79L192.90-17.79L192.90-17.79Q197.44-17.79 200.06-20.61L200.06-20.61L200.06-20.61Q202.69-23.30 202.69-27.58L202.69-27.58L202.69-27.58Q202.69-29.06 202.14-29.86L202.14-29.86L202.14-29.86Q201.60-30.66 200.51-30.66L200.51-30.66L200.51-30.66Q199.42-30.66 198.50-30.24L198.50-30.24L198.50-30.24Q197.57-29.82 196.61-28.42L196.61-28.42L196.61-28.42Q194.24-25.22 192.90-17.79ZM234.11-17.98L234.11-17.98L234.11-17.98Q236.42-22.08 236.42-26.24L236.42-26.24L236.42-26.24Q236.42-28.99 234.43-28.99L234.43-28.99L234.43-28.99Q232.90-28.99 231.30-26.37L231.30-26.37L231.30-26.37Q229.63-23.74 229.12-20.35L229.12-20.35L225.79 0L212.54 1.28L219.07-32.64L229.63-33.92L228.48-27.46L228.48-27.46Q231.62-33.92 238.66-33.92L238.66-33.92L238.66-33.92Q242.37-33.92 244.38-32L244.38-32L244.38-32Q246.40-30.08 246.40-26.14L246.40-26.14L246.40-26.14Q246.40-22.21 243.81-19.71L243.81-19.71L243.81-19.71Q241.22-17.22 236.80-17.22L236.80-17.22L236.80-17.22Q234.88-17.22 234.11-17.98Z"></path></g></g><style>text {
  font-size: 64px;
  font-family: Arial Black;
  dominant-baseline: central;
  text-anchor: middle;
}</style></svg>